<mxfile host="app.diagrams.net" modified="2021-05-12T06:08:05.618Z" agent="5.0 (Windows NT 10.0; Win64; x64) AppleWebKit/537.36 (KHTML, like Gecko) Chrome/90.0.4430.93 Safari/537.36" etag="HXjntmXDKzYHqQ4cZkbR" version="14.6.12" type="github">
  <diagram id="qNtHvHr-Q_ltwnV1EGBj" name="Page-1">
    <mxGraphModel dx="1449" dy="761" grid="1" gridSize="10" guides="1" tooltips="1" connect="1" arrows="1" fold="1" page="1" pageScale="1" pageWidth="827" pageHeight="1169" math="0" shadow="0">
      <root>
        <mxCell id="0" />
        <mxCell id="1" parent="0" />
        <mxCell id="-fM7mds_HS6A8kRONg-R-6" style="edgeStyle=orthogonalEdgeStyle;rounded=0;orthogonalLoop=1;jettySize=auto;html=1;exitX=0.5;exitY=0;exitDx=0;exitDy=0;entryX=0.5;entryY=1;entryDx=0;entryDy=0;dashed=1;endArrow=open;endFill=0;" parent="1" source="Hz_aNHwt8BgAc0QITuWz-30" target="Hz_aNHwt8BgAc0QITuWz-60" edge="1">
          <mxGeometry relative="1" as="geometry" />
        </mxCell>
        <mxCell id="Hz_aNHwt8BgAc0QITuWz-30" value="Sound Controller" style="swimlane;fontStyle=1;align=center;verticalAlign=top;childLayout=stackLayout;horizontal=1;startSize=26;horizontalStack=0;resizeParent=1;resizeParentMax=0;resizeLast=0;collapsible=1;marginBottom=0;" parent="1" vertex="1">
          <mxGeometry x="1360" y="460" width="220" height="86" as="geometry" />
        </mxCell>
        <mxCell id="Hz_aNHwt8BgAc0QITuWz-33" value="" style="line;strokeWidth=1;fillColor=none;align=left;verticalAlign=middle;spacingTop=-1;spacingLeft=3;spacingRight=3;rotatable=0;labelPosition=right;points=[];portConstraint=eastwest;" parent="Hz_aNHwt8BgAc0QITuWz-30" vertex="1">
          <mxGeometry y="26" width="220" height="8" as="geometry" />
        </mxCell>
        <mxCell id="VSV6r8VIV5T4gKpohB-m-29" value="+ getStereo(sound) : Stereo Sound" style="text;strokeColor=none;fillColor=none;align=left;verticalAlign=top;spacingLeft=4;spacingRight=4;overflow=hidden;rotatable=0;points=[[0,0.5],[1,0.5]];portConstraint=eastwest;" parent="Hz_aNHwt8BgAc0QITuWz-30" vertex="1">
          <mxGeometry y="34" width="220" height="26" as="geometry" />
        </mxCell>
        <mxCell id="Hz_aNHwt8BgAc0QITuWz-34" value="+ printStereo(stereoSound)" style="text;strokeColor=none;fillColor=none;align=left;verticalAlign=top;spacingLeft=4;spacingRight=4;overflow=hidden;rotatable=0;points=[[0,0.5],[1,0.5]];portConstraint=eastwest;" parent="Hz_aNHwt8BgAc0QITuWz-30" vertex="1">
          <mxGeometry y="60" width="220" height="26" as="geometry" />
        </mxCell>
        <mxCell id="Hz_aNHwt8BgAc0QITuWz-60" value="&lt;&lt;external&gt;&gt;&#xa;Stereophonic System" style="swimlane;fontStyle=1;align=center;verticalAlign=top;childLayout=stackLayout;horizontal=1;startSize=40;horizontalStack=0;resizeParent=1;resizeParentMax=0;resizeLast=0;collapsible=1;marginBottom=0;" parent="1" vertex="1">
          <mxGeometry x="1390" y="260" width="160" height="50" as="geometry" />
        </mxCell>
        <mxCell id="Hz_aNHwt8BgAc0QITuWz-62" value="" style="line;strokeWidth=1;fillColor=none;align=left;verticalAlign=middle;spacingTop=-1;spacingLeft=3;spacingRight=3;rotatable=0;labelPosition=right;points=[];portConstraint=eastwest;" parent="Hz_aNHwt8BgAc0QITuWz-60" vertex="1">
          <mxGeometry y="40" width="160" height="10" as="geometry" />
        </mxCell>
        <mxCell id="VSV6r8VIV5T4gKpohB-m-1" value="Character Controller" style="swimlane;fontStyle=1;align=center;verticalAlign=top;childLayout=stackLayout;horizontal=1;startSize=26;horizontalStack=0;resizeParent=1;resizeParentMax=0;resizeLast=0;collapsible=1;marginBottom=0;" parent="1" vertex="1">
          <mxGeometry x="290" y="710" width="360" height="138" as="geometry" />
        </mxCell>
        <mxCell id="VSV6r8VIV5T4gKpohB-m-2" value="- customData : Character Customization Data" style="text;strokeColor=none;fillColor=none;align=left;verticalAlign=top;spacingLeft=4;spacingRight=4;overflow=hidden;rotatable=0;points=[[0,0.5],[1,0.5]];portConstraint=eastwest;" parent="VSV6r8VIV5T4gKpohB-m-1" vertex="1">
          <mxGeometry y="26" width="360" height="26" as="geometry" />
        </mxCell>
        <mxCell id="VSV6r8VIV5T4gKpohB-m-4" value="" style="line;strokeWidth=1;fillColor=none;align=left;verticalAlign=middle;spacingTop=-1;spacingLeft=3;spacingRight=3;rotatable=0;labelPosition=right;points=[];portConstraint=eastwest;" parent="VSV6r8VIV5T4gKpohB-m-1" vertex="1">
          <mxGeometry y="52" width="360" height="8" as="geometry" />
        </mxCell>
        <mxCell id="VSV6r8VIV5T4gKpohB-m-30" value="+ attachMotion(face, eyes, nose, mouse, characterModel)" style="text;strokeColor=none;fillColor=none;align=left;verticalAlign=top;spacingLeft=4;spacingRight=4;overflow=hidden;rotatable=0;points=[[0,0.5],[1,0.5]];portConstraint=eastwest;" parent="VSV6r8VIV5T4gKpohB-m-1" vertex="1">
          <mxGeometry y="60" width="360" height="26" as="geometry" />
        </mxCell>
        <mxCell id="-fM7mds_HS6A8kRONg-R-17" value="+ attachGesture(gesture : List)" style="text;strokeColor=none;fillColor=none;align=left;verticalAlign=top;spacingLeft=4;spacingRight=4;overflow=hidden;rotatable=0;points=[[0,0.5],[1,0.5]];portConstraint=eastwest;" parent="VSV6r8VIV5T4gKpohB-m-1" vertex="1">
          <mxGeometry y="86" width="360" height="26" as="geometry" />
        </mxCell>
        <mxCell id="VSV6r8VIV5T4gKpohB-m-5" value="+ getCustomData() : hairStyle, hairColor, eyesColor, skinColor" style="text;strokeColor=none;fillColor=none;align=left;verticalAlign=top;spacingLeft=4;spacingRight=4;overflow=hidden;rotatable=0;points=[[0,0.5],[1,0.5]];portConstraint=eastwest;" parent="VSV6r8VIV5T4gKpohB-m-1" vertex="1">
          <mxGeometry y="112" width="360" height="26" as="geometry" />
        </mxCell>
        <mxCell id="VSV6r8VIV5T4gKpohB-m-6" value="Character Panel" style="swimlane;fontStyle=1;align=center;verticalAlign=top;childLayout=stackLayout;horizontal=1;startSize=26;horizontalStack=0;resizeParent=1;resizeParentMax=0;resizeLast=0;collapsible=1;marginBottom=0;" parent="1" vertex="1">
          <mxGeometry x="424.5" y="280" width="170" height="60" as="geometry" />
        </mxCell>
        <mxCell id="VSV6r8VIV5T4gKpohB-m-7" value="- renderedCharacter : Video" style="text;strokeColor=none;fillColor=none;align=left;verticalAlign=top;spacingLeft=4;spacingRight=4;overflow=hidden;rotatable=0;points=[[0,0.5],[1,0.5]];portConstraint=eastwest;" parent="VSV6r8VIV5T4gKpohB-m-6" vertex="1">
          <mxGeometry y="26" width="170" height="26" as="geometry" />
        </mxCell>
        <mxCell id="VSV6r8VIV5T4gKpohB-m-9" value="" style="line;strokeWidth=1;fillColor=none;align=left;verticalAlign=middle;spacingTop=-1;spacingLeft=3;spacingRight=3;rotatable=0;labelPosition=right;points=[];portConstraint=eastwest;" parent="VSV6r8VIV5T4gKpohB-m-6" vertex="1">
          <mxGeometry y="52" width="170" height="8" as="geometry" />
        </mxCell>
        <mxCell id="VSV6r8VIV5T4gKpohB-m-39" style="edgeStyle=orthogonalEdgeStyle;rounded=0;orthogonalLoop=1;jettySize=auto;html=1;dashed=1;endArrow=open;endFill=0;" parent="1" source="VSV6r8VIV5T4gKpohB-m-11" target="VSV6r8VIV5T4gKpohB-m-6" edge="1">
          <mxGeometry relative="1" as="geometry">
            <Array as="points" />
          </mxGeometry>
        </mxCell>
        <mxCell id="VSV6r8VIV5T4gKpohB-m-11" value="Rendering Controller" style="swimlane;fontStyle=1;align=center;verticalAlign=top;childLayout=stackLayout;horizontal=1;startSize=26;horizontalStack=0;resizeParent=1;resizeParentMax=0;resizeLast=0;collapsible=1;marginBottom=0;" parent="1" vertex="1">
          <mxGeometry x="400" y="510" width="219" height="86" as="geometry" />
        </mxCell>
        <mxCell id="VSV6r8VIV5T4gKpohB-m-12" value="- characterPanel : Character Panel" style="text;strokeColor=none;fillColor=none;align=left;verticalAlign=top;spacingLeft=4;spacingRight=4;overflow=hidden;rotatable=0;points=[[0,0.5],[1,0.5]];portConstraint=eastwest;" parent="VSV6r8VIV5T4gKpohB-m-11" vertex="1">
          <mxGeometry y="26" width="219" height="26" as="geometry" />
        </mxCell>
        <mxCell id="VSV6r8VIV5T4gKpohB-m-14" value="" style="line;strokeWidth=1;fillColor=none;align=left;verticalAlign=middle;spacingTop=-1;spacingLeft=3;spacingRight=3;rotatable=0;labelPosition=right;points=[];portConstraint=eastwest;" parent="VSV6r8VIV5T4gKpohB-m-11" vertex="1">
          <mxGeometry y="52" width="219" height="8" as="geometry" />
        </mxCell>
        <mxCell id="VSV6r8VIV5T4gKpohB-m-15" value="+ returnVideo(sceneData) : Video" style="text;strokeColor=none;fillColor=none;align=left;verticalAlign=top;spacingLeft=4;spacingRight=4;overflow=hidden;rotatable=0;points=[[0,0.5],[1,0.5]];portConstraint=eastwest;" parent="VSV6r8VIV5T4gKpohB-m-11" vertex="1">
          <mxGeometry y="60" width="219" height="26" as="geometry" />
        </mxCell>
        <mxCell id="-fM7mds_HS6A8kRONg-R-40" style="edgeStyle=orthogonalEdgeStyle;rounded=0;orthogonalLoop=1;jettySize=auto;html=1;dashed=1;endArrow=open;endFill=0;" parent="1" source="VSV6r8VIV5T4gKpohB-m-23" target="-fM7mds_HS6A8kRONg-R-2" edge="1">
          <mxGeometry relative="1" as="geometry">
            <Array as="points">
              <mxPoint x="-30" y="720" />
              <mxPoint x="-30" y="720" />
            </Array>
          </mxGeometry>
        </mxCell>
        <mxCell id="VSV6r8VIV5T4gKpohB-m-23" value="Cam Controller" style="swimlane;fontStyle=1;align=center;verticalAlign=top;childLayout=stackLayout;horizontal=1;startSize=26;horizontalStack=0;resizeParent=1;resizeParentMax=0;resizeLast=0;collapsible=1;marginBottom=0;" parent="1" vertex="1">
          <mxGeometry x="-140" y="736" width="239" height="86" as="geometry" />
        </mxCell>
        <mxCell id="VSV6r8VIV5T4gKpohB-m-26" value="" style="line;strokeWidth=1;fillColor=none;align=left;verticalAlign=middle;spacingTop=-1;spacingLeft=3;spacingRight=3;rotatable=0;labelPosition=right;points=[];portConstraint=eastwest;" parent="VSV6r8VIV5T4gKpohB-m-23" vertex="1">
          <mxGeometry y="26" width="239" height="8" as="geometry" />
        </mxCell>
        <mxCell id="VSV6r8VIV5T4gKpohB-m-28" value="+ getCamData() : face, eyes, nose, mouse" style="text;strokeColor=none;fillColor=none;align=left;verticalAlign=top;spacingLeft=4;spacingRight=4;overflow=hidden;rotatable=0;points=[[0,0.5],[1,0.5]];portConstraint=eastwest;" parent="VSV6r8VIV5T4gKpohB-m-23" vertex="1">
          <mxGeometry y="34" width="239" height="26" as="geometry" />
        </mxCell>
        <mxCell id="VSV6r8VIV5T4gKpohB-m-27" value="+ sendCamData()" style="text;strokeColor=none;fillColor=none;align=left;verticalAlign=top;spacingLeft=4;spacingRight=4;overflow=hidden;rotatable=0;points=[[0,0.5],[1,0.5]];portConstraint=eastwest;" parent="VSV6r8VIV5T4gKpohB-m-23" vertex="1">
          <mxGeometry y="60" width="239" height="26" as="geometry" />
        </mxCell>
        <mxCell id="VSV6r8VIV5T4gKpohB-m-31" style="edgeStyle=orthogonalEdgeStyle;rounded=0;orthogonalLoop=1;jettySize=auto;html=1;dashed=1;endArrow=open;endFill=0;" parent="1" source="Kb90lWqh0blAMlvWXbu4-104" target="Hz_aNHwt8BgAc0QITuWz-30" edge="1">
          <mxGeometry relative="1" as="geometry">
            <mxPoint x="962" y="534" as="sourcePoint" />
            <Array as="points">
              <mxPoint x="1470" y="710" />
            </Array>
            <mxPoint x="1042" y="534" as="targetPoint" />
          </mxGeometry>
        </mxCell>
        <mxCell id="-fM7mds_HS6A8kRONg-R-2" value="&lt;&lt;external&gt;&gt;&#xa;Webcam System" style="swimlane;fontStyle=1;align=center;verticalAlign=top;childLayout=stackLayout;horizontal=1;startSize=40;horizontalStack=0;resizeParent=1;resizeParentMax=0;resizeLast=0;collapsible=1;marginBottom=0;" parent="1" vertex="1">
          <mxGeometry x="-110.5" y="624" width="160" height="50" as="geometry" />
        </mxCell>
        <mxCell id="-fM7mds_HS6A8kRONg-R-3" value="" style="line;strokeWidth=1;fillColor=none;align=left;verticalAlign=middle;spacingTop=-1;spacingLeft=3;spacingRight=3;rotatable=0;labelPosition=right;points=[];portConstraint=eastwest;" parent="-fM7mds_HS6A8kRONg-R-2" vertex="1">
          <mxGeometry y="40" width="160" height="10" as="geometry" />
        </mxCell>
        <mxCell id="-fM7mds_HS6A8kRONg-R-24" style="edgeStyle=orthogonalEdgeStyle;rounded=0;orthogonalLoop=1;jettySize=auto;html=1;endArrow=diamondThin;endFill=1;" parent="1" source="-fM7mds_HS6A8kRONg-R-9" target="VSV6r8VIV5T4gKpohB-m-1" edge="1">
          <mxGeometry relative="1" as="geometry">
            <Array as="points">
              <mxPoint x="202" y="730" />
            </Array>
            <mxPoint x="149.99999999999977" y="956" as="targetPoint" />
          </mxGeometry>
        </mxCell>
        <mxCell id="-fM7mds_HS6A8kRONg-R-9" value="Character Customization Data" style="swimlane;fontStyle=1;align=center;verticalAlign=top;childLayout=stackLayout;horizontal=1;startSize=26;horizontalStack=0;resizeParent=1;resizeParentMax=0;resizeLast=0;collapsible=1;marginBottom=0;" parent="1" vertex="1">
          <mxGeometry x="104" y="460" width="196" height="164" as="geometry" />
        </mxCell>
        <mxCell id="-fM7mds_HS6A8kRONg-R-22" value="- hairStyle : HairStyleList" style="text;strokeColor=none;fillColor=none;align=left;verticalAlign=top;spacingLeft=4;spacingRight=4;overflow=hidden;rotatable=0;points=[[0,0.5],[1,0.5]];portConstraint=eastwest;" parent="-fM7mds_HS6A8kRONg-R-9" vertex="1">
          <mxGeometry y="26" width="196" height="26" as="geometry" />
        </mxCell>
        <mxCell id="-fM7mds_HS6A8kRONg-R-21" value="- hairColor : HairColorList" style="text;strokeColor=none;fillColor=none;align=left;verticalAlign=top;spacingLeft=4;spacingRight=4;overflow=hidden;rotatable=0;points=[[0,0.5],[1,0.5]];portConstraint=eastwest;" parent="-fM7mds_HS6A8kRONg-R-9" vertex="1">
          <mxGeometry y="52" width="196" height="26" as="geometry" />
        </mxCell>
        <mxCell id="-fM7mds_HS6A8kRONg-R-20" value="- eyesColor : EyesColorList" style="text;strokeColor=none;fillColor=none;align=left;verticalAlign=top;spacingLeft=4;spacingRight=4;overflow=hidden;rotatable=0;points=[[0,0.5],[1,0.5]];portConstraint=eastwest;" parent="-fM7mds_HS6A8kRONg-R-9" vertex="1">
          <mxGeometry y="78" width="196" height="26" as="geometry" />
        </mxCell>
        <mxCell id="Kb90lWqh0blAMlvWXbu4-15" value="- skinColor : SkinColorList" style="text;strokeColor=none;fillColor=none;align=left;verticalAlign=top;spacingLeft=4;spacingRight=4;overflow=hidden;rotatable=0;points=[[0,0.5],[1,0.5]];portConstraint=eastwest;" parent="-fM7mds_HS6A8kRONg-R-9" vertex="1">
          <mxGeometry y="104" width="196" height="26" as="geometry" />
        </mxCell>
        <mxCell id="-fM7mds_HS6A8kRONg-R-10" value="- userIdList : UserIdList" style="text;strokeColor=none;fillColor=none;align=left;verticalAlign=top;spacingLeft=4;spacingRight=4;overflow=hidden;rotatable=0;points=[[0,0.5],[1,0.5]];portConstraint=eastwest;" parent="-fM7mds_HS6A8kRONg-R-9" vertex="1">
          <mxGeometry y="130" width="196" height="26" as="geometry" />
        </mxCell>
        <mxCell id="-fM7mds_HS6A8kRONg-R-11" value="" style="line;strokeWidth=1;fillColor=none;align=left;verticalAlign=middle;spacingTop=-1;spacingLeft=3;spacingRight=3;rotatable=0;labelPosition=right;points=[];portConstraint=eastwest;" parent="-fM7mds_HS6A8kRONg-R-9" vertex="1">
          <mxGeometry y="156" width="196" height="8" as="geometry" />
        </mxCell>
        <mxCell id="-fM7mds_HS6A8kRONg-R-25" value="1" style="text;html=1;align=center;verticalAlign=middle;resizable=0;points=[];autosize=1;strokeColor=none;" parent="1" vertex="1">
          <mxGeometry x="260" y="710" width="20" height="20" as="geometry" />
        </mxCell>
        <mxCell id="-fM7mds_HS6A8kRONg-R-27" value="0..*" style="text;html=1;align=center;verticalAlign=middle;resizable=0;points=[];autosize=1;strokeColor=none;" parent="1" vertex="1">
          <mxGeometry x="200" y="624" width="30" height="20" as="geometry" />
        </mxCell>
        <mxCell id="-fM7mds_HS6A8kRONg-R-36" style="edgeStyle=orthogonalEdgeStyle;rounded=0;orthogonalLoop=1;jettySize=auto;html=1;dashed=1;endArrow=open;endFill=0;" parent="1" source="VSV6r8VIV5T4gKpohB-m-1" target="VSV6r8VIV5T4gKpohB-m-23" edge="1">
          <mxGeometry relative="1" as="geometry">
            <Array as="points">
              <mxPoint x="220" y="775" />
              <mxPoint x="220" y="775" />
            </Array>
          </mxGeometry>
        </mxCell>
        <mxCell id="-fM7mds_HS6A8kRONg-R-38" style="edgeStyle=orthogonalEdgeStyle;rounded=0;orthogonalLoop=1;jettySize=auto;html=1;dashed=1;endArrow=open;endFill=0;" parent="1" source="VSV6r8VIV5T4gKpohB-m-11" target="VSV6r8VIV5T4gKpohB-m-1" edge="1">
          <mxGeometry relative="1" as="geometry">
            <Array as="points">
              <mxPoint x="350" y="800" />
              <mxPoint x="350" y="800" />
            </Array>
            <mxPoint x="310" y="859" as="targetPoint" />
          </mxGeometry>
        </mxCell>
        <mxCell id="Kb90lWqh0blAMlvWXbu4-64" style="edgeStyle=orthogonalEdgeStyle;rounded=0;orthogonalLoop=1;jettySize=auto;html=1;dashed=1;endArrow=open;endFill=0;" parent="1" source="Kb90lWqh0blAMlvWXbu4-66" target="Kb90lWqh0blAMlvWXbu4-72" edge="1">
          <mxGeometry relative="1" as="geometry">
            <Array as="points">
              <mxPoint x="1200" y="320" />
              <mxPoint x="1200" y="320" />
            </Array>
          </mxGeometry>
        </mxCell>
        <mxCell id="Kb90lWqh0blAMlvWXbu4-65" style="edgeStyle=orthogonalEdgeStyle;rounded=0;orthogonalLoop=1;jettySize=auto;html=1;dashed=1;endArrow=open;endFill=0;" parent="1" source="Kb90lWqh0blAMlvWXbu4-66" target="Kb90lWqh0blAMlvWXbu4-123" edge="1">
          <mxGeometry relative="1" as="geometry">
            <Array as="points">
              <mxPoint x="820" y="439" />
            </Array>
          </mxGeometry>
        </mxCell>
        <mxCell id="Kb90lWqh0blAMlvWXbu4-66" value="Page Controller" style="swimlane;fontStyle=1;align=center;verticalAlign=top;childLayout=stackLayout;horizontal=1;startSize=26;horizontalStack=0;resizeParent=1;resizeParentMax=0;resizeLast=0;collapsible=1;marginBottom=0;" parent="1" vertex="1">
          <mxGeometry x="1035" y="366" width="260" height="138" as="geometry" />
        </mxCell>
        <mxCell id="Kb90lWqh0blAMlvWXbu4-68" value="- meetingRoomView : Meeting Room View" style="text;strokeColor=none;fillColor=none;align=left;verticalAlign=top;spacingLeft=4;spacingRight=4;overflow=hidden;rotatable=0;points=[[0,0.5],[1,0.5]];portConstraint=eastwest;" parent="Kb90lWqh0blAMlvWXbu4-66" vertex="1">
          <mxGeometry y="26" width="260" height="26" as="geometry" />
        </mxCell>
        <mxCell id="Kb90lWqh0blAMlvWXbu4-69" value="- customizationView : Customization View" style="text;strokeColor=none;fillColor=none;align=left;verticalAlign=top;spacingLeft=4;spacingRight=4;overflow=hidden;rotatable=0;points=[[0,0.5],[1,0.5]];portConstraint=eastwest;" parent="Kb90lWqh0blAMlvWXbu4-66" vertex="1">
          <mxGeometry y="52" width="260" height="26" as="geometry" />
        </mxCell>
        <mxCell id="Kb90lWqh0blAMlvWXbu4-67" value="- mainPageView : Main Page View" style="text;strokeColor=none;fillColor=none;align=left;verticalAlign=top;spacingLeft=4;spacingRight=4;overflow=hidden;rotatable=0;points=[[0,0.5],[1,0.5]];portConstraint=eastwest;" parent="Kb90lWqh0blAMlvWXbu4-66" vertex="1">
          <mxGeometry y="78" width="260" height="26" as="geometry" />
        </mxCell>
        <mxCell id="Kb90lWqh0blAMlvWXbu4-70" value="" style="line;strokeWidth=1;fillColor=none;align=left;verticalAlign=middle;spacingTop=-1;spacingLeft=3;spacingRight=3;rotatable=0;labelPosition=right;points=[];portConstraint=eastwest;" parent="Kb90lWqh0blAMlvWXbu4-66" vertex="1">
          <mxGeometry y="104" width="260" height="8" as="geometry" />
        </mxCell>
        <mxCell id="Kb90lWqh0blAMlvWXbu4-71" value="+ changePage(view)" style="text;strokeColor=none;fillColor=none;align=left;verticalAlign=top;spacingLeft=4;spacingRight=4;overflow=hidden;rotatable=0;points=[[0,0.5],[1,0.5]];portConstraint=eastwest;" parent="Kb90lWqh0blAMlvWXbu4-66" vertex="1">
          <mxGeometry y="112" width="260" height="26" as="geometry" />
        </mxCell>
        <mxCell id="Kb90lWqh0blAMlvWXbu4-72" value="Customization View" style="swimlane;fontStyle=1;align=center;verticalAlign=top;childLayout=stackLayout;horizontal=1;startSize=26;horizontalStack=0;resizeParent=1;resizeParentMax=0;resizeLast=0;collapsible=1;marginBottom=0;" parent="1" vertex="1">
          <mxGeometry x="1120" y="80" width="160" height="190" as="geometry" />
        </mxCell>
        <mxCell id="Kb90lWqh0blAMlvWXbu4-73" value="- hairStyleOptionList : List" style="text;strokeColor=none;fillColor=none;align=left;verticalAlign=top;spacingLeft=4;spacingRight=4;overflow=hidden;rotatable=0;points=[[0,0.5],[1,0.5]];portConstraint=eastwest;" parent="Kb90lWqh0blAMlvWXbu4-72" vertex="1">
          <mxGeometry y="26" width="160" height="26" as="geometry" />
        </mxCell>
        <mxCell id="Kb90lWqh0blAMlvWXbu4-74" value="- hairColorOptionList : List" style="text;strokeColor=none;fillColor=none;align=left;verticalAlign=top;spacingLeft=4;spacingRight=4;overflow=hidden;rotatable=0;points=[[0,0.5],[1,0.5]];portConstraint=eastwest;" parent="Kb90lWqh0blAMlvWXbu4-72" vertex="1">
          <mxGeometry y="52" width="160" height="26" as="geometry" />
        </mxCell>
        <mxCell id="Kb90lWqh0blAMlvWXbu4-75" value="- skinColorOptionList : List" style="text;strokeColor=none;fillColor=none;align=left;verticalAlign=top;spacingLeft=4;spacingRight=4;overflow=hidden;rotatable=0;points=[[0,0.5],[1,0.5]];portConstraint=eastwest;" parent="Kb90lWqh0blAMlvWXbu4-72" vertex="1">
          <mxGeometry y="78" width="160" height="26" as="geometry" />
        </mxCell>
        <mxCell id="Kb90lWqh0blAMlvWXbu4-76" value="- eyesColorOptionList : List" style="text;strokeColor=none;fillColor=none;align=left;verticalAlign=top;spacingLeft=4;spacingRight=4;overflow=hidden;rotatable=0;points=[[0,0.5],[1,0.5]];portConstraint=eastwest;" parent="Kb90lWqh0blAMlvWXbu4-72" vertex="1">
          <mxGeometry y="104" width="160" height="26" as="geometry" />
        </mxCell>
        <mxCell id="Kb90lWqh0blAMlvWXbu4-77" value="- saveButton : Button" style="text;strokeColor=none;fillColor=none;align=left;verticalAlign=top;spacingLeft=4;spacingRight=4;overflow=hidden;rotatable=0;points=[[0,0.5],[1,0.5]];portConstraint=eastwest;" parent="Kb90lWqh0blAMlvWXbu4-72" vertex="1">
          <mxGeometry y="130" width="160" height="26" as="geometry" />
        </mxCell>
        <mxCell id="Kb90lWqh0blAMlvWXbu4-78" value="- avatar : image" style="text;strokeColor=none;fillColor=none;align=left;verticalAlign=top;spacingLeft=4;spacingRight=4;overflow=hidden;rotatable=0;points=[[0,0.5],[1,0.5]];portConstraint=eastwest;" parent="Kb90lWqh0blAMlvWXbu4-72" vertex="1">
          <mxGeometry y="156" width="160" height="26" as="geometry" />
        </mxCell>
        <mxCell id="Kb90lWqh0blAMlvWXbu4-79" value="" style="line;strokeWidth=1;fillColor=none;align=left;verticalAlign=middle;spacingTop=-1;spacingLeft=3;spacingRight=3;rotatable=0;labelPosition=right;points=[];portConstraint=eastwest;" parent="Kb90lWqh0blAMlvWXbu4-72" vertex="1">
          <mxGeometry y="182" width="160" height="8" as="geometry" />
        </mxCell>
        <mxCell id="Kb90lWqh0blAMlvWXbu4-80" style="edgeStyle=orthogonalEdgeStyle;rounded=0;orthogonalLoop=1;jettySize=auto;html=1;endArrow=open;endFill=0;dashed=1;" parent="1" source="Kb90lWqh0blAMlvWXbu4-82" target="-fM7mds_HS6A8kRONg-R-9" edge="1">
          <mxGeometry relative="1" as="geometry" />
        </mxCell>
        <mxCell id="Kb90lWqh0blAMlvWXbu4-81" style="edgeStyle=orthogonalEdgeStyle;rounded=0;orthogonalLoop=1;jettySize=auto;html=1;dashed=1;endArrow=open;endFill=0;" parent="1" source="Kb90lWqh0blAMlvWXbu4-82" target="Kb90lWqh0blAMlvWXbu4-72" edge="1">
          <mxGeometry relative="1" as="geometry">
            <Array as="points">
              <mxPoint x="370" y="135" />
              <mxPoint x="370" y="135" />
            </Array>
          </mxGeometry>
        </mxCell>
        <mxCell id="Kb90lWqh0blAMlvWXbu4-82" value="Customizing Controller" style="swimlane;fontStyle=1;align=center;verticalAlign=top;childLayout=stackLayout;horizontal=1;startSize=26;horizontalStack=0;resizeParent=1;resizeParentMax=0;resizeLast=0;collapsible=1;marginBottom=0;" parent="1" vertex="1">
          <mxGeometry x="32" y="30" width="340" height="346" as="geometry" />
        </mxCell>
        <mxCell id="Kb90lWqh0blAMlvWXbu4-83" value="- customizationView : Customization View" style="text;strokeColor=none;fillColor=none;align=left;verticalAlign=top;spacingLeft=4;spacingRight=4;overflow=hidden;rotatable=0;points=[[0,0.5],[1,0.5]];portConstraint=eastwest;" parent="Kb90lWqh0blAMlvWXbu4-82" vertex="1">
          <mxGeometry y="26" width="340" height="26" as="geometry" />
        </mxCell>
        <mxCell id="Kb90lWqh0blAMlvWXbu4-84" value="- CustomizationData : Character Customization Data" style="text;strokeColor=none;fillColor=none;align=left;verticalAlign=top;spacingLeft=4;spacingRight=4;overflow=hidden;rotatable=0;points=[[0,0.5],[1,0.5]];portConstraint=eastwest;" parent="Kb90lWqh0blAMlvWXbu4-82" vertex="1">
          <mxGeometry y="52" width="340" height="26" as="geometry" />
        </mxCell>
        <mxCell id="Kb90lWqh0blAMlvWXbu4-85" value="- accountData : AccountData" style="text;strokeColor=none;fillColor=none;align=left;verticalAlign=top;spacingLeft=4;spacingRight=4;overflow=hidden;rotatable=0;points=[[0,0.5],[1,0.5]];portConstraint=eastwest;" parent="Kb90lWqh0blAMlvWXbu4-82" vertex="1">
          <mxGeometry y="78" width="340" height="26" as="geometry" />
        </mxCell>
        <mxCell id="Kb90lWqh0blAMlvWXbu4-86" value="- optionList : OptionList" style="text;strokeColor=none;fillColor=none;align=left;verticalAlign=top;spacingLeft=4;spacingRight=4;overflow=hidden;rotatable=0;points=[[0,0.5],[1,0.5]];portConstraint=eastwest;" parent="Kb90lWqh0blAMlvWXbu4-82" vertex="1">
          <mxGeometry y="104" width="340" height="26" as="geometry" />
        </mxCell>
        <mxCell id="Kb90lWqh0blAMlvWXbu4-87" value="" style="line;strokeWidth=1;fillColor=none;align=left;verticalAlign=middle;spacingTop=-1;spacingLeft=3;spacingRight=3;rotatable=0;labelPosition=right;points=[];portConstraint=eastwest;" parent="Kb90lWqh0blAMlvWXbu4-82" vertex="1">
          <mxGeometry y="130" width="340" height="8" as="geometry" />
        </mxCell>
        <mxCell id="Kb90lWqh0blAMlvWXbu4-88" value="+ selectHairColor(HairColor)" style="text;strokeColor=none;fillColor=none;align=left;verticalAlign=top;spacingLeft=4;spacingRight=4;overflow=hidden;rotatable=0;points=[[0,0.5],[1,0.5]];portConstraint=eastwest;" parent="Kb90lWqh0blAMlvWXbu4-82" vertex="1">
          <mxGeometry y="138" width="340" height="26" as="geometry" />
        </mxCell>
        <mxCell id="Kb90lWqh0blAMlvWXbu4-89" value="+ selectHairStyle(HairStyle)" style="text;strokeColor=none;fillColor=none;align=left;verticalAlign=top;spacingLeft=4;spacingRight=4;overflow=hidden;rotatable=0;points=[[0,0.5],[1,0.5]];portConstraint=eastwest;" parent="Kb90lWqh0blAMlvWXbu4-82" vertex="1">
          <mxGeometry y="164" width="340" height="26" as="geometry" />
        </mxCell>
        <mxCell id="Kb90lWqh0blAMlvWXbu4-90" value="+ selectEyesColor(EyesColor)" style="text;strokeColor=none;fillColor=none;align=left;verticalAlign=top;spacingLeft=4;spacingRight=4;overflow=hidden;rotatable=0;points=[[0,0.5],[1,0.5]];portConstraint=eastwest;" parent="Kb90lWqh0blAMlvWXbu4-82" vertex="1">
          <mxGeometry y="190" width="340" height="26" as="geometry" />
        </mxCell>
        <mxCell id="Kb90lWqh0blAMlvWXbu4-91" value="+ selectSkinColor(SkinColor)" style="text;strokeColor=none;fillColor=none;align=left;verticalAlign=top;spacingLeft=4;spacingRight=4;overflow=hidden;rotatable=0;points=[[0,0.5],[1,0.5]];portConstraint=eastwest;" parent="Kb90lWqh0blAMlvWXbu4-82" vertex="1">
          <mxGeometry y="216" width="340" height="26" as="geometry" />
        </mxCell>
        <mxCell id="Kb90lWqh0blAMlvWXbu4-92" value="+ attachHair(HairColor, HairStyle)" style="text;strokeColor=none;fillColor=none;align=left;verticalAlign=top;spacingLeft=4;spacingRight=4;overflow=hidden;rotatable=0;points=[[0,0.5],[1,0.5]];portConstraint=eastwest;" parent="Kb90lWqh0blAMlvWXbu4-82" vertex="1">
          <mxGeometry y="242" width="340" height="26" as="geometry" />
        </mxCell>
        <mxCell id="Kb90lWqh0blAMlvWXbu4-93" value="+ attachEyes(EyesColor)" style="text;strokeColor=none;fillColor=none;align=left;verticalAlign=top;spacingLeft=4;spacingRight=4;overflow=hidden;rotatable=0;points=[[0,0.5],[1,0.5]];portConstraint=eastwest;" parent="Kb90lWqh0blAMlvWXbu4-82" vertex="1">
          <mxGeometry y="268" width="340" height="26" as="geometry" />
        </mxCell>
        <mxCell id="Kb90lWqh0blAMlvWXbu4-94" value="+ attachSkin(SkinColor)" style="text;strokeColor=none;fillColor=none;align=left;verticalAlign=top;spacingLeft=4;spacingRight=4;overflow=hidden;rotatable=0;points=[[0,0.5],[1,0.5]];portConstraint=eastwest;" parent="Kb90lWqh0blAMlvWXbu4-82" vertex="1">
          <mxGeometry y="294" width="340" height="26" as="geometry" />
        </mxCell>
        <mxCell id="Kb90lWqh0blAMlvWXbu4-95" value="+ saveOptions(OptionList)" style="text;strokeColor=none;fillColor=none;align=left;verticalAlign=top;spacingLeft=4;spacingRight=4;overflow=hidden;rotatable=0;points=[[0,0.5],[1,0.5]];portConstraint=eastwest;" parent="Kb90lWqh0blAMlvWXbu4-82" vertex="1">
          <mxGeometry y="320" width="340" height="26" as="geometry" />
        </mxCell>
        <mxCell id="Kb90lWqh0blAMlvWXbu4-103" style="edgeStyle=orthogonalEdgeStyle;rounded=0;orthogonalLoop=1;jettySize=auto;html=1;endArrow=open;endFill=0;dashed=1;" parent="1" source="Kb90lWqh0blAMlvWXbu4-104" target="Kb90lWqh0blAMlvWXbu4-66" edge="1">
          <mxGeometry relative="1" as="geometry">
            <Array as="points" />
          </mxGeometry>
        </mxCell>
        <mxCell id="Kb90lWqh0blAMlvWXbu4-104" value="Meeting Room Controller" style="swimlane;fontStyle=1;align=center;verticalAlign=top;childLayout=stackLayout;horizontal=1;startSize=26;horizontalStack=0;resizeParent=1;resizeParentMax=0;resizeLast=0;collapsible=1;marginBottom=0;" parent="1" vertex="1">
          <mxGeometry x="1030" y="596" width="270" height="320" as="geometry" />
        </mxCell>
        <mxCell id="Kb90lWqh0blAMlvWXbu4-105" value="- meetingRoomView : Meeting Room View" style="text;strokeColor=none;fillColor=none;align=left;verticalAlign=top;spacingLeft=4;spacingRight=4;overflow=hidden;rotatable=0;points=[[0,0.5],[1,0.5]];portConstraint=eastwest;" parent="Kb90lWqh0blAMlvWXbu4-104" vertex="1">
          <mxGeometry y="26" width="270" height="26" as="geometry" />
        </mxCell>
        <mxCell id="Kb90lWqh0blAMlvWXbu4-106" value="- meetingRoomData : Meeting Room Data" style="text;strokeColor=none;fillColor=none;align=left;verticalAlign=top;spacingLeft=4;spacingRight=4;overflow=hidden;rotatable=0;points=[[0,0.5],[1,0.5]];portConstraint=eastwest;" parent="Kb90lWqh0blAMlvWXbu4-104" vertex="1">
          <mxGeometry y="52" width="270" height="26" as="geometry" />
        </mxCell>
        <mxCell id="Kb90lWqh0blAMlvWXbu4-107" value="- chatPanel : Chatting Panel" style="text;strokeColor=none;fillColor=none;align=left;verticalAlign=top;spacingLeft=4;spacingRight=4;overflow=hidden;rotatable=0;points=[[0,0.5],[1,0.5]];portConstraint=eastwest;" parent="Kb90lWqh0blAMlvWXbu4-104" vertex="1">
          <mxGeometry y="78" width="270" height="26" as="geometry" />
        </mxCell>
        <mxCell id="Kb90lWqh0blAMlvWXbu4-108" value="- chattingData : Chatting Log Data" style="text;strokeColor=none;fillColor=none;align=left;verticalAlign=top;spacingLeft=4;spacingRight=4;overflow=hidden;rotatable=0;points=[[0,0.5],[1,0.5]];portConstraint=eastwest;" parent="Kb90lWqh0blAMlvWXbu4-104" vertex="1">
          <mxGeometry y="104" width="270" height="26" as="geometry" />
        </mxCell>
        <mxCell id="Kb90lWqh0blAMlvWXbu4-109" value="" style="line;strokeWidth=1;fillColor=none;align=left;verticalAlign=middle;spacingTop=-1;spacingLeft=3;spacingRight=3;rotatable=0;labelPosition=right;points=[];portConstraint=eastwest;" parent="Kb90lWqh0blAMlvWXbu4-104" vertex="1">
          <mxGeometry y="130" width="270" height="8" as="geometry" />
        </mxCell>
        <mxCell id="Kb90lWqh0blAMlvWXbu4-110" value="+ micInputed(event : MicInputEvent)" style="text;strokeColor=none;fillColor=none;align=left;verticalAlign=top;spacingLeft=4;spacingRight=4;overflow=hidden;rotatable=0;points=[[0,0.5],[1,0.5]];portConstraint=eastwest;" parent="Kb90lWqh0blAMlvWXbu4-104" vertex="1">
          <mxGeometry y="138" width="270" height="26" as="geometry" />
        </mxCell>
        <mxCell id="Kb90lWqh0blAMlvWXbu4-111" value="+ sendChat(String)" style="text;strokeColor=none;fillColor=none;align=left;verticalAlign=top;spacingLeft=4;spacingRight=4;overflow=hidden;rotatable=0;points=[[0,0.5],[1,0.5]];portConstraint=eastwest;" parent="Kb90lWqh0blAMlvWXbu4-104" vertex="1">
          <mxGeometry y="164" width="270" height="26" as="geometry" />
        </mxCell>
        <mxCell id="Kb90lWqh0blAMlvWXbu4-112" value="+ compositionUpdate()" style="text;strokeColor=none;fillColor=none;align=left;verticalAlign=top;spacingLeft=4;spacingRight=4;overflow=hidden;rotatable=0;points=[[0,0.5],[1,0.5]];portConstraint=eastwest;" parent="Kb90lWqh0blAMlvWXbu4-104" vertex="1">
          <mxGeometry y="190" width="270" height="26" as="geometry" />
        </mxCell>
        <mxCell id="Kb90lWqh0blAMlvWXbu4-113" value="+ create() : MeetingRoom" style="text;strokeColor=none;fillColor=none;align=left;verticalAlign=top;spacingLeft=4;spacingRight=4;overflow=hidden;rotatable=0;points=[[0,0.5],[1,0.5]];portConstraint=eastwest;" parent="Kb90lWqh0blAMlvWXbu4-104" vertex="1">
          <mxGeometry y="216" width="270" height="26" as="geometry" />
        </mxCell>
        <mxCell id="Kb90lWqh0blAMlvWXbu4-114" value="+ remove(MeetingRoom)" style="text;strokeColor=none;fillColor=none;align=left;verticalAlign=top;spacingLeft=4;spacingRight=4;overflow=hidden;rotatable=0;points=[[0,0.5],[1,0.5]];portConstraint=eastwest;" parent="Kb90lWqh0blAMlvWXbu4-104" vertex="1">
          <mxGeometry y="242" width="270" height="26" as="geometry" />
        </mxCell>
        <mxCell id="Kb90lWqh0blAMlvWXbu4-115" value="+ buttonClicked(event : buttonClick)" style="text;strokeColor=none;fillColor=none;align=left;verticalAlign=top;spacingLeft=4;spacingRight=4;overflow=hidden;rotatable=0;points=[[0,0.5],[1,0.5]];portConstraint=eastwest;" parent="Kb90lWqh0blAMlvWXbu4-104" vertex="1">
          <mxGeometry y="268" width="270" height="26" as="geometry" />
        </mxCell>
        <mxCell id="F3ZiGzod_9su80YzuncB-25" value="+ join(UserID)" style="text;strokeColor=none;fillColor=none;align=left;verticalAlign=top;spacingLeft=4;spacingRight=4;overflow=hidden;rotatable=0;points=[[0,0.5],[1,0.5]];portConstraint=eastwest;" vertex="1" parent="Kb90lWqh0blAMlvWXbu4-104">
          <mxGeometry y="294" width="270" height="26" as="geometry" />
        </mxCell>
        <mxCell id="Kb90lWqh0blAMlvWXbu4-116" style="edgeStyle=orthogonalEdgeStyle;rounded=0;orthogonalLoop=1;jettySize=auto;html=1;dashed=1;endArrow=open;endFill=0;" parent="1" source="Kb90lWqh0blAMlvWXbu4-118" target="Kb90lWqh0blAMlvWXbu4-104" edge="1">
          <mxGeometry relative="1" as="geometry">
            <Array as="points">
              <mxPoint x="880" y="787" />
              <mxPoint x="880" y="787" />
            </Array>
            <mxPoint x="820" y="870" as="sourcePoint" />
          </mxGeometry>
        </mxCell>
        <mxCell id="Kb90lWqh0blAMlvWXbu4-117" style="edgeStyle=orthogonalEdgeStyle;rounded=0;orthogonalLoop=1;jettySize=auto;html=1;entryX=0.5;entryY=1;entryDx=0;entryDy=0;endArrow=open;endFill=0;dashed=1;" parent="1" source="Kb90lWqh0blAMlvWXbu4-118" target="Kb90lWqh0blAMlvWXbu4-123" edge="1">
          <mxGeometry relative="1" as="geometry" />
        </mxCell>
        <mxCell id="Kb90lWqh0blAMlvWXbu4-118" value="Main Controller" style="swimlane;fontStyle=1;align=center;verticalAlign=top;childLayout=stackLayout;horizontal=1;startSize=26;horizontalStack=0;resizeParent=1;resizeParentMax=0;resizeLast=0;collapsible=1;marginBottom=0;" parent="1" vertex="1">
          <mxGeometry x="710" y="724" width="220" height="112" as="geometry" />
        </mxCell>
        <mxCell id="Kb90lWqh0blAMlvWXbu4-119" value="- mainPageView : MainPage View" style="text;strokeColor=none;fillColor=none;align=left;verticalAlign=top;spacingLeft=4;spacingRight=4;overflow=hidden;rotatable=0;points=[[0,0.5],[1,0.5]];portConstraint=eastwest;" parent="Kb90lWqh0blAMlvWXbu4-118" vertex="1">
          <mxGeometry y="26" width="220" height="26" as="geometry" />
        </mxCell>
        <mxCell id="Kb90lWqh0blAMlvWXbu4-120" value="- account : Account Data" style="text;strokeColor=none;fillColor=none;align=left;verticalAlign=top;spacingLeft=4;spacingRight=4;overflow=hidden;rotatable=0;points=[[0,0.5],[1,0.5]];portConstraint=eastwest;" parent="Kb90lWqh0blAMlvWXbu4-118" vertex="1">
          <mxGeometry y="52" width="220" height="26" as="geometry" />
        </mxCell>
        <mxCell id="Kb90lWqh0blAMlvWXbu4-121" value="" style="line;strokeWidth=1;fillColor=none;align=left;verticalAlign=middle;spacingTop=-1;spacingLeft=3;spacingRight=3;rotatable=0;labelPosition=right;points=[];portConstraint=eastwest;" parent="Kb90lWqh0blAMlvWXbu4-118" vertex="1">
          <mxGeometry y="78" width="220" height="8" as="geometry" />
        </mxCell>
        <mxCell id="Kb90lWqh0blAMlvWXbu4-122" value="+ buttonClicked(event : buttonClick)" style="text;strokeColor=none;fillColor=none;align=left;verticalAlign=top;spacingLeft=4;spacingRight=4;overflow=hidden;rotatable=0;points=[[0,0.5],[1,0.5]];portConstraint=eastwest;" parent="Kb90lWqh0blAMlvWXbu4-118" vertex="1">
          <mxGeometry y="86" width="220" height="26" as="geometry" />
        </mxCell>
        <mxCell id="Kb90lWqh0blAMlvWXbu4-123" value="Main Page View" style="swimlane;fontStyle=1;align=center;verticalAlign=top;childLayout=stackLayout;horizontal=1;startSize=26;horizontalStack=0;resizeParent=1;resizeParentMax=0;resizeLast=0;collapsible=1;marginBottom=0;" parent="1" vertex="1">
          <mxGeometry x="740" y="505" width="160" height="86" as="geometry" />
        </mxCell>
        <mxCell id="Kb90lWqh0blAMlvWXbu4-124" value="- createRoomBtn : Button" style="text;strokeColor=none;fillColor=none;align=left;verticalAlign=top;spacingLeft=4;spacingRight=4;overflow=hidden;rotatable=0;points=[[0,0.5],[1,0.5]];portConstraint=eastwest;" parent="Kb90lWqh0blAMlvWXbu4-123" vertex="1">
          <mxGeometry y="26" width="160" height="26" as="geometry" />
        </mxCell>
        <mxCell id="Kb90lWqh0blAMlvWXbu4-125" value="- CustomBtn : Button" style="text;strokeColor=none;fillColor=none;align=left;verticalAlign=top;spacingLeft=4;spacingRight=4;overflow=hidden;rotatable=0;points=[[0,0.5],[1,0.5]];portConstraint=eastwest;" parent="Kb90lWqh0blAMlvWXbu4-123" vertex="1">
          <mxGeometry y="52" width="160" height="26" as="geometry" />
        </mxCell>
        <mxCell id="Kb90lWqh0blAMlvWXbu4-126" value="" style="line;strokeWidth=1;fillColor=none;align=left;verticalAlign=middle;spacingTop=-1;spacingLeft=3;spacingRight=3;rotatable=0;labelPosition=right;points=[];portConstraint=eastwest;" parent="Kb90lWqh0blAMlvWXbu4-123" vertex="1">
          <mxGeometry y="78" width="160" height="8" as="geometry" />
        </mxCell>
        <mxCell id="Kb90lWqh0blAMlvWXbu4-127" value="Meeting Room View" style="swimlane;fontStyle=1;align=center;verticalAlign=top;childLayout=stackLayout;horizontal=1;startSize=26;horizontalStack=0;resizeParent=1;resizeParentMax=0;resizeLast=0;collapsible=1;marginBottom=0;" parent="1" vertex="1">
          <mxGeometry x="690" y="228" width="260" height="138" as="geometry" />
        </mxCell>
        <mxCell id="Kb90lWqh0blAMlvWXbu4-128" value="- chatPanel : Chatting Panel" style="text;strokeColor=none;fillColor=none;align=left;verticalAlign=top;spacingLeft=4;spacingRight=4;overflow=hidden;rotatable=0;points=[[0,0.5],[1,0.5]];portConstraint=eastwest;" parent="Kb90lWqh0blAMlvWXbu4-127" vertex="1">
          <mxGeometry y="26" width="260" height="26" as="geometry" />
        </mxCell>
        <mxCell id="Kb90lWqh0blAMlvWXbu4-129" value="- sharedScreenPanel : SharedScreenPanel" style="text;strokeColor=none;fillColor=none;align=left;verticalAlign=top;spacingLeft=4;spacingRight=4;overflow=hidden;rotatable=0;points=[[0,0.5],[1,0.5]];portConstraint=eastwest;" parent="Kb90lWqh0blAMlvWXbu4-127" vertex="1">
          <mxGeometry y="52" width="260" height="26" as="geometry" />
        </mxCell>
        <mxCell id="Kb90lWqh0blAMlvWXbu4-130" value="- characterPanel : CharacterPanel" style="text;strokeColor=none;fillColor=none;align=left;verticalAlign=top;spacingLeft=4;spacingRight=4;overflow=hidden;rotatable=0;points=[[0,0.5],[1,0.5]];portConstraint=eastwest;" parent="Kb90lWqh0blAMlvWXbu4-127" vertex="1">
          <mxGeometry y="78" width="260" height="26" as="geometry" />
        </mxCell>
        <mxCell id="Kb90lWqh0blAMlvWXbu4-131" value="- option : OptionUI" style="text;strokeColor=none;fillColor=none;align=left;verticalAlign=top;spacingLeft=4;spacingRight=4;overflow=hidden;rotatable=0;points=[[0,0.5],[1,0.5]];portConstraint=eastwest;" parent="Kb90lWqh0blAMlvWXbu4-127" vertex="1">
          <mxGeometry y="104" width="260" height="26" as="geometry" />
        </mxCell>
        <mxCell id="Kb90lWqh0blAMlvWXbu4-132" value="" style="line;strokeWidth=1;fillColor=none;align=left;verticalAlign=middle;spacingTop=-1;spacingLeft=3;spacingRight=3;rotatable=0;labelPosition=right;points=[];portConstraint=eastwest;" parent="Kb90lWqh0blAMlvWXbu4-127" vertex="1">
          <mxGeometry y="130" width="260" height="8" as="geometry" />
        </mxCell>
        <mxCell id="Kb90lWqh0blAMlvWXbu4-133" style="edgeStyle=orthogonalEdgeStyle;rounded=0;orthogonalLoop=1;jettySize=auto;html=1;dashed=1;endArrow=open;endFill=0;" parent="1" source="Kb90lWqh0blAMlvWXbu4-66" target="Kb90lWqh0blAMlvWXbu4-127" edge="1">
          <mxGeometry relative="1" as="geometry">
            <Array as="points">
              <mxPoint x="1080" y="290" />
            </Array>
          </mxGeometry>
        </mxCell>
        <mxCell id="F3ZiGzod_9su80YzuncB-24" style="edgeStyle=orthogonalEdgeStyle;rounded=0;orthogonalLoop=1;jettySize=auto;html=1;endArrow=block;endFill=0;" edge="1" parent="1" source="Kb90lWqh0blAMlvWXbu4-142" target="F3ZiGzod_9su80YzuncB-1">
          <mxGeometry relative="1" as="geometry">
            <Array as="points">
              <mxPoint x="1340" y="890" />
              <mxPoint x="1340" y="1040" />
            </Array>
          </mxGeometry>
        </mxCell>
        <mxCell id="Kb90lWqh0blAMlvWXbu4-142" value="Meeting Room Data" style="swimlane;fontStyle=1;align=center;verticalAlign=top;childLayout=stackLayout;horizontal=1;startSize=26;horizontalStack=0;resizeParent=1;resizeParentMax=0;resizeLast=0;collapsible=1;marginBottom=0;" parent="1" vertex="1">
          <mxGeometry x="1400" y="830" width="160" height="116" as="geometry" />
        </mxCell>
        <mxCell id="Kb90lWqh0blAMlvWXbu4-143" value="- createTime : date" style="text;strokeColor=none;fillColor=none;align=left;verticalAlign=top;spacingLeft=4;spacingRight=4;overflow=hidden;rotatable=0;points=[[0,0.5],[1,0.5]];portConstraint=eastwest;" parent="Kb90lWqh0blAMlvWXbu4-142" vertex="1">
          <mxGeometry y="26" width="160" height="26" as="geometry" />
        </mxCell>
        <mxCell id="Kb90lWqh0blAMlvWXbu4-145" value="- isActive : bool" style="text;strokeColor=none;fillColor=none;align=left;verticalAlign=top;spacingLeft=4;spacingRight=4;overflow=hidden;rotatable=0;points=[[0,0.5],[1,0.5]];portConstraint=eastwest;" parent="Kb90lWqh0blAMlvWXbu4-142" vertex="1">
          <mxGeometry y="52" width="160" height="26" as="geometry" />
        </mxCell>
        <mxCell id="Kb90lWqh0blAMlvWXbu4-146" value="- creator : string" style="text;strokeColor=none;fillColor=none;align=left;verticalAlign=top;spacingLeft=4;spacingRight=4;overflow=hidden;rotatable=0;points=[[0,0.5],[1,0.5]];portConstraint=eastwest;" parent="Kb90lWqh0blAMlvWXbu4-142" vertex="1">
          <mxGeometry y="78" width="160" height="30" as="geometry" />
        </mxCell>
        <mxCell id="Kb90lWqh0blAMlvWXbu4-147" value="" style="line;strokeWidth=1;fillColor=none;align=left;verticalAlign=middle;spacingTop=-1;spacingLeft=3;spacingRight=3;rotatable=0;labelPosition=right;points=[];portConstraint=eastwest;" parent="Kb90lWqh0blAMlvWXbu4-142" vertex="1">
          <mxGeometry y="108" width="160" height="8" as="geometry" />
        </mxCell>
        <mxCell id="-_dojDM_s-eGDx1kbeZO-4" style="edgeStyle=orthogonalEdgeStyle;rounded=0;orthogonalLoop=1;jettySize=auto;html=1;endArrow=none;endFill=0;" parent="1" source="VSV6r8VIV5T4gKpohB-m-6" target="Kb90lWqh0blAMlvWXbu4-127" edge="1">
          <mxGeometry relative="1" as="geometry">
            <mxPoint x="499" y="658" as="sourcePoint" />
            <mxPoint x="499" y="600" as="targetPoint" />
            <Array as="points">
              <mxPoint x="530" y="297" />
            </Array>
          </mxGeometry>
        </mxCell>
        <mxCell id="3-dq96xMbbGnmO61JuTL-1" value="1" style="text;html=1;strokeColor=none;fillColor=none;align=center;verticalAlign=middle;whiteSpace=wrap;rounded=0;" parent="1" vertex="1">
          <mxGeometry x="670" y="287" width="20" height="20" as="geometry" />
        </mxCell>
        <mxCell id="3-dq96xMbbGnmO61JuTL-2" value="0..*" style="text;html=1;strokeColor=none;fillColor=none;align=center;verticalAlign=middle;whiteSpace=wrap;rounded=0;" parent="1" vertex="1">
          <mxGeometry x="594.5" y="290" width="28" height="20" as="geometry" />
        </mxCell>
        <mxCell id="F3ZiGzod_9su80YzuncB-1" value="Meeting Room Model" style="swimlane;fontStyle=1;align=center;verticalAlign=top;childLayout=stackLayout;horizontal=1;startSize=26;horizontalStack=0;resizeParent=1;resizeParentMax=0;resizeLast=0;collapsible=1;marginBottom=0;" vertex="1" parent="1">
          <mxGeometry x="1085" y="1010" width="160" height="60" as="geometry" />
        </mxCell>
        <mxCell id="F3ZiGzod_9su80YzuncB-2" value="- roomID : int" style="text;strokeColor=none;fillColor=none;align=left;verticalAlign=top;spacingLeft=4;spacingRight=4;overflow=hidden;rotatable=0;points=[[0,0.5],[1,0.5]];portConstraint=eastwest;" vertex="1" parent="F3ZiGzod_9su80YzuncB-1">
          <mxGeometry y="26" width="160" height="26" as="geometry" />
        </mxCell>
        <mxCell id="F3ZiGzod_9su80YzuncB-3" value="" style="line;strokeWidth=1;fillColor=none;align=left;verticalAlign=middle;spacingTop=-1;spacingLeft=3;spacingRight=3;rotatable=0;labelPosition=right;points=[];portConstraint=eastwest;" vertex="1" parent="F3ZiGzod_9su80YzuncB-1">
          <mxGeometry y="52" width="160" height="8" as="geometry" />
        </mxCell>
        <mxCell id="F3ZiGzod_9su80YzuncB-5" style="edgeStyle=orthogonalEdgeStyle;rounded=0;orthogonalLoop=1;jettySize=auto;html=1;endArrow=diamondThin;endFill=1;startSize=6;endSize=10;" edge="1" parent="1" source="F3ZiGzod_9su80YzuncB-1" target="Kb90lWqh0blAMlvWXbu4-104">
          <mxGeometry relative="1" as="geometry">
            <Array as="points" />
            <mxPoint x="1440" y="842" as="sourcePoint" />
            <mxPoint x="1310" y="842" as="targetPoint" />
          </mxGeometry>
        </mxCell>
        <mxCell id="F3ZiGzod_9su80YzuncB-6" value="0..*" style="edgeLabel;html=1;align=center;verticalAlign=middle;resizable=0;points=[];" vertex="1" connectable="0" parent="F3ZiGzod_9su80YzuncB-5">
          <mxGeometry x="-0.58" y="-4" relative="1" as="geometry">
            <mxPoint x="7" y="7" as="offset" />
          </mxGeometry>
        </mxCell>
        <mxCell id="F3ZiGzod_9su80YzuncB-7" value="1" style="edgeLabel;html=1;align=center;verticalAlign=middle;resizable=0;points=[];" vertex="1" connectable="0" parent="F3ZiGzod_9su80YzuncB-5">
          <mxGeometry x="0.64" y="-2" relative="1" as="geometry">
            <mxPoint x="3" y="7" as="offset" />
          </mxGeometry>
        </mxCell>
        <mxCell id="F3ZiGzod_9su80YzuncB-22" style="edgeStyle=orthogonalEdgeStyle;rounded=0;orthogonalLoop=1;jettySize=auto;html=1;endArrow=block;endFill=0;" edge="1" parent="1" source="F3ZiGzod_9su80YzuncB-8" target="F3ZiGzod_9su80YzuncB-1">
          <mxGeometry relative="1" as="geometry">
            <Array as="points" />
          </mxGeometry>
        </mxCell>
        <mxCell id="F3ZiGzod_9su80YzuncB-8" value="Meeting Room Partipants Data" style="swimlane;fontStyle=1;align=center;verticalAlign=top;childLayout=stackLayout;horizontal=1;startSize=26;horizontalStack=0;resizeParent=1;resizeParentMax=0;resizeLast=0;collapsible=1;marginBottom=0;" vertex="1" parent="1">
          <mxGeometry x="1370" y="1010" width="230" height="60" as="geometry" />
        </mxCell>
        <mxCell id="F3ZiGzod_9su80YzuncB-9" value="- participants : List" style="text;strokeColor=none;fillColor=none;align=left;verticalAlign=top;spacingLeft=4;spacingRight=4;overflow=hidden;rotatable=0;points=[[0,0.5],[1,0.5]];portConstraint=eastwest;" vertex="1" parent="F3ZiGzod_9su80YzuncB-8">
          <mxGeometry y="26" width="230" height="26" as="geometry" />
        </mxCell>
        <mxCell id="F3ZiGzod_9su80YzuncB-10" value="" style="line;strokeWidth=1;fillColor=none;align=left;verticalAlign=middle;spacingTop=-1;spacingLeft=3;spacingRight=3;rotatable=0;labelPosition=right;points=[];portConstraint=eastwest;" vertex="1" parent="F3ZiGzod_9su80YzuncB-8">
          <mxGeometry y="52" width="230" height="8" as="geometry" />
        </mxCell>
      </root>
    </mxGraphModel>
  </diagram>
</mxfile>
